<svg width="192" height="46" viewBox="0 0 192 46" fill="none" xmlns="http://www.w3.org/2000/svg">
<g id="Logo 1" clip-path="url(#clip0_1276_673)">
<path id="Vector" d="M8.95984 22.4997H19.1998V28.1663H8.95984V22.4997ZM9.48496 31.233H20.9721V37.1663H1.87061V13.833H20.5455V19.7663H9.48496V31.233ZM28.8114 37.1663L21.5909 18.933H29.2052L34.6862 33.733H30.8463L36.6883 18.933H43.7118L36.4913 37.1663H28.8114ZM54.2771 37.4997C52.0889 37.4997 50.1745 37.0887 48.5335 36.2663C46.9141 35.444 45.6561 34.322 44.7591 32.8997C43.8618 31.4552 43.4135 29.833 43.4135 28.033C43.4135 26.1886 43.851 24.5552 44.7263 23.133C45.6233 21.7108 46.8377 20.5997 48.3694 19.7997C49.9228 18.9997 51.6623 18.5997 53.5879 18.5997C55.3602 18.5997 56.99 18.9552 58.4781 19.6663C59.9879 20.3774 61.1911 21.433 62.0884 22.833C63.0073 24.233 63.4668 25.9663 63.4668 28.033C63.4668 28.2997 63.4557 28.5997 63.434 28.933C63.412 29.2441 63.39 29.533 63.3684 29.7997H49.5509V26.1663H59.4299L56.6402 27.133C56.6402 26.4219 56.5089 25.8219 56.2463 25.333C56.0054 24.8219 55.6664 24.433 55.2289 24.1663C54.7911 23.8774 54.2659 23.733 53.6535 23.733C53.0407 23.733 52.5048 23.8774 52.0453 24.1663C51.6075 24.433 51.2684 24.8219 51.0279 25.333C50.787 25.8219 50.6668 26.4219 50.6668 27.133V28.2663C50.6668 29.0441 50.8198 29.7108 51.1263 30.2663C51.4325 30.8219 51.87 31.2441 52.4391 31.533C53.0079 31.7997 53.6972 31.933 54.5068 31.933C55.3382 31.933 56.0166 31.8219 56.5417 31.5997C57.0885 31.3774 57.6576 31.0441 58.2484 30.5997L62.1212 34.5663C61.2459 35.522 60.1628 36.2553 58.872 36.7663C57.6028 37.2553 56.0711 37.4997 54.2771 37.4997ZM65.8076 37.1663V18.933H72.864V24.433L71.7153 22.8663C72.2621 21.4441 73.1374 20.3774 74.3409 19.6663C75.5441 18.9552 76.9882 18.5997 78.6732 18.5997V25.2663C78.345 25.2219 78.0496 25.1886 77.7871 25.1663C77.5462 25.1441 77.2948 25.133 77.0322 25.133C75.9163 25.133 74.9973 25.433 74.2753 26.033C73.5749 26.6108 73.225 27.6219 73.225 29.0663V37.1663H65.8076ZM92.7549 37.4997C91.2015 37.4997 89.9106 37.1663 88.882 36.4997C87.8758 35.8107 87.1317 34.7773 86.6503 33.3997C86.1691 31.9997 85.9282 30.2219 85.9282 28.0663C85.9282 25.8663 86.1471 24.0774 86.5846 22.6997C87.0441 21.2997 87.7773 20.2663 88.7836 19.5997C89.7902 18.933 91.1138 18.5997 92.7549 18.5997C94.3303 18.5997 95.7744 18.9886 97.0872 19.7663C98.4 20.5219 99.4503 21.6108 100.238 23.033C101.026 24.433 101.419 26.1108 101.419 28.0663C101.419 30.0219 101.026 31.7108 100.238 33.133C99.4503 34.533 98.4 35.6107 97.0872 36.3663C95.7744 37.122 94.3303 37.4997 92.7549 37.4997ZM80.7754 43.633V18.933H87.8318V21.3997L87.8646 28.0663L88.1928 34.733V43.633H80.7754ZM90.9826 31.633C91.5297 31.633 92.022 31.4997 92.4595 31.233C92.8973 30.9663 93.2472 30.5663 93.5097 30.033C93.7723 29.4997 93.9036 28.8441 93.9036 28.0663C93.9036 27.2663 93.7723 26.5997 93.5097 26.0663C93.2472 25.533 92.8973 25.133 92.4595 24.8663C92.022 24.5997 91.5297 24.4663 90.9826 24.4663C90.4358 24.4663 89.9435 24.5997 89.5056 24.8663C89.0681 25.133 88.7179 25.533 88.4554 26.0663C88.1928 26.5997 88.0615 27.2663 88.0615 28.0663C88.0615 28.8441 88.1928 29.4997 88.4554 30.033C88.7179 30.5663 89.0681 30.9663 89.5056 31.233C89.9435 31.4997 90.4358 31.633 90.9826 31.633ZM113.241 37.4997C111.207 37.4997 109.401 37.0997 107.826 36.2997C106.272 35.4773 105.047 34.3553 104.15 32.933C103.253 31.5108 102.805 29.8774 102.805 28.033C102.805 26.1886 103.253 24.5552 104.15 23.133C105.047 21.7108 106.272 20.5997 107.826 19.7997C109.401 18.9997 111.207 18.5997 113.241 18.5997C115.276 18.5997 117.081 18.9997 118.657 19.7997C120.232 20.5997 121.457 21.7108 122.333 23.133C123.23 24.5552 123.678 26.1886 123.678 28.033C123.678 29.8774 123.23 31.5108 122.333 32.933C121.457 34.3553 120.232 35.4773 118.657 36.2997C117.081 37.0997 115.276 37.4997 113.241 37.4997ZM113.241 31.633C113.788 31.633 114.281 31.4997 114.718 31.233C115.156 30.9663 115.506 30.5663 115.769 30.033C116.031 29.4774 116.162 28.8108 116.162 28.033C116.162 27.233 116.031 26.5774 115.769 26.0663C115.506 25.533 115.156 25.133 114.718 24.8663C114.281 24.5997 113.788 24.4663 113.241 24.4663C112.694 24.4663 112.202 24.5997 111.765 24.8663C111.327 25.133 110.977 25.533 110.714 26.0663C110.452 26.5774 110.32 27.233 110.32 28.033C110.32 28.8108 110.452 29.4774 110.714 30.033C110.977 30.5663 111.327 30.9663 111.765 31.233C112.202 31.4997 112.694 31.633 113.241 31.633ZM129.917 37.1663L123.681 18.933H130.705L135.431 33.733H132.05L137.006 18.933H143.308L148.034 33.733H144.752L149.642 18.933H156.14L149.905 37.1663H142.684L138.91 25.433H141.076L137.137 37.1663H129.917ZM167.001 37.4997C164.813 37.4997 162.899 37.0887 161.258 36.2663C159.638 35.444 158.38 34.322 157.483 32.8997C156.586 31.4552 156.138 29.833 156.138 28.033C156.138 26.1886 156.575 24.5552 157.451 23.133C158.348 21.7108 159.562 20.5997 161.094 19.7997C162.647 18.9997 164.387 18.5997 166.312 18.5997C168.085 18.5997 169.714 18.9552 171.202 19.6663C172.712 20.3774 173.915 21.433 174.813 22.833C175.732 24.233 176.191 25.9663 176.191 28.033C176.191 28.2997 176.18 28.5997 176.158 28.933C176.136 29.2441 176.114 29.533 176.093 29.7997H162.275V26.1663H172.154L169.365 27.133C169.365 26.4219 169.233 25.8219 168.971 25.333C168.73 24.8219 168.391 24.433 167.953 24.1663C167.515 23.8774 166.99 23.733 166.378 23.733C165.765 23.733 165.229 23.8774 164.77 24.1663C164.332 24.433 163.993 24.8219 163.752 25.333C163.511 25.8219 163.391 26.4219 163.391 27.133V28.2663C163.391 29.0441 163.544 29.7108 163.851 30.2663C164.157 30.8219 164.594 31.2441 165.163 31.533C165.732 31.7997 166.421 31.933 167.231 31.933C168.063 31.933 168.741 31.8219 169.266 31.5997C169.813 31.3774 170.382 31.0441 170.973 30.5997L174.846 34.5663C173.97 35.522 172.887 36.2553 171.596 36.7663C170.327 37.2553 168.795 37.4997 167.001 37.4997ZM178.532 37.1663V18.933H185.588V24.433L184.44 22.8663C184.987 21.4441 185.862 20.3774 187.065 19.6663C188.269 18.9552 189.713 18.5997 191.398 18.5997V25.2663C191.069 25.2219 190.774 25.1886 190.511 25.1663C190.271 25.1441 190.019 25.133 189.757 25.133C188.641 25.133 187.722 25.433 187 26.033C186.3 26.6108 185.949 27.6219 185.949 29.0663V37.1663H178.532Z" fill="black"/>
<path id="Vector_2" d="M42.6668 0.5H1.31299V6.16667H42.6668V0.5Z" fill="#FF521F"/>
</g>
<defs>
<clipPath id="clip0_1276_673">
<rect width="192" height="45" fill="white" transform="translate(0 0.5)"/>
</clipPath>
</defs>
</svg>
